<svg xmlns="http://www.w3.org/2000/svg" version="1" viewBox="0 0 64 64" xml:space="preserve" width="64" height="64"><metadata><rdf:RDF xmlns:rdf="http://www.w3.org/1999/02/22-rdf-syntax-ns#" xmlns:dc="http://purl.org/dc/elements/1.1/"><rdf:Description><dc:creator>RealFaviconGenerator</dc:creator><dc:source>https://realfavicongenerator.net</dc:source></rdf:Description></rdf:RDF></metadata><path fill="#a1f051" d="M40.13.918C23.06-3.657 5.512 6.474.938 23.545s5.557 34.618 22.627 39.192 34.618-5.557 39.192-22.628S57.201 5.492 40.13.918m9.336 34.595a39.8 39.8 0 0 0 .565-16.068 40 40 0 0 0 8.257-1.778A29.88 29.88 0 0 1 61.06 38.62zM25.38 61.117c-.107-.023-.215-.052-.324-.077l3.09-11.533c3.189.944 6.174 2.255 8.898 3.905a38.2 38.2 0 0 1-11.664 7.705m13.377-6.587a38 38 0 0 1 5.52 4.603 29.9 29.9 0 0 1-15.361 2.55 40.2 40.2 0 0 0 9.841-7.153m-22.201-6.607c3.185-.068 6.426.29 9.659 1.066l-3.09 11.532c-.106-.033-.214-.062-.32-.095a38.2 38.2 0 0 1-6.25-12.503m2.905 11.225A29.86 29.86 0 0 1 7.431 49.26a38 38 0 0 1 7.081-1.226 40.2 40.2 0 0 0 4.947 11.114M3.153 23.103A29.88 29.88 0 0 1 16.03 6.344a40 40 0 0 0 6.262 5.668 39.8 39.8 0 0 0-7.546 14.198zm44.478-5.479a38 38 0 0 1-10.666-1.03l3.607-13.462c.106.033.214.062.319.095a38.2 38.2 0 0 1 6.74 14.397M44.236 4.507a29.9 29.9 0 0 1 13.02 11.379 37.8 37.8 0 0 1-7.614 1.583 40.2 40.2 0 0 0-5.406-12.962M38.64 2.615l-3.607 13.462a37.9 37.9 0 0 1-9.753-4.442 38.2 38.2 0 0 1 13.036-9.098c.107.024.216.053.324.078m-15.023 7.88a37.7 37.7 0 0 1-5.801-5.177A29.9 29.9 0 0 1 34.78 1.973a40.1 40.1 0 0 0-11.163 8.522m.326 2.66a39.9 39.9 0 0 0 10.567 4.872l-3.37 12.575-14.458-3.874a37.8 37.8 0 0 1 7.261-13.574m6.68 19.38L26.73 47.058a40 40 0 0 0-10.69-1.116c-1.265-5.529-1.286-11.418.123-17.282zm-1.96 15.042 3.892-14.524 14.459 3.874c-1.711 5.783-4.675 10.873-8.535 15.03a40 40 0 0 0-9.816-4.38m4.41-16.456 3.37-12.576a39.9 39.9 0 0 0 11.587 1.063 37.8 37.8 0 0 1-.498 15.386zM2.634 25.035l11.594 3.107a39.8 39.8 0 0 0-.2 17.928 40 40 0 0 0-7.745 1.44C2.293 41.003.78 32.998 2.635 25.035m43.51 33.157a40 40 0 0 0-5.988-5.12 39.8 39.8 0 0 0 8.791-15.626l11.594 3.106c-2.374 7.823-7.687 14-14.397 17.64"></path><path d="m49.466 35.513 11.594 3.106a29.88 29.88 0 0 0-2.773-20.952 40 40 0 0 1-8.257 1.777 39.8 39.8 0 0 1-.564 16.069m-12.423 17.9a38 38 0 0 0-8.897-3.906l-3.09 11.532c.108.025.216.054.324.077a38.2 38.2 0 0 0 11.663-7.704m-8.127 8.27a29.86 29.86 0 0 0 15.361-2.55 38 38 0 0 0-5.52-4.603 40.3 40.3 0 0 1-9.841 7.153m-6.112-1.255c.105.033.213.062.32.095l3.09-11.533c-3.233-.776-6.475-1.135-9.66-1.066a38.2 38.2 0 0 0 6.25 12.504m-8.29-12.393a38 38 0 0 0-7.082 1.226 29.86 29.86 0 0 0 12.028 9.888 40.2 40.2 0 0 1-4.947-11.114m7.78-36.022a40 40 0 0 1-6.262-5.668 29.88 29.88 0 0 0-12.878 16.76l11.594 3.106a39.8 39.8 0 0 1 7.546-14.198M40.89 3.227c-.105-.033-.213-.062-.32-.095l-3.606 13.463a37.9 37.9 0 0 0 10.666 1.03 38.2 38.2 0 0 0-6.74-14.398m8.75 14.241a37.7 37.7 0 0 0 7.613-1.582 29.9 29.9 0 0 0-13.02-11.38 40.1 40.1 0 0 1 5.407 12.962M25.28 11.635a38 38 0 0 0 9.753 4.442L38.64 2.615c-.108-.025-.217-.054-.324-.078a38.2 38.2 0 0 0-13.036 9.098m9.5-9.662a29.9 29.9 0 0 0-16.965 3.345 37.8 37.8 0 0 0 5.801 5.177A40.2 40.2 0 0 1 34.78 1.973M16.682 26.728l14.459 3.874 3.37-12.576a39.9 39.9 0 0 1-10.567-4.873 37.8 37.8 0 0 0-7.262 13.575m-.641 19.215a40 40 0 0 1 10.69 1.116l3.892-14.525-14.459-3.874c-1.409 5.864-1.388 11.753-.123 17.283m30.973-9.017-14.46-3.874-3.89 14.524a39.9 39.9 0 0 1 9.815 4.378c3.86-4.155 6.823-9.245 8.535-15.028m1.016-17.318a39.9 39.9 0 0 1-11.588-1.064l-3.37 12.576 14.46 3.874a37.8 37.8 0 0 0 .498-15.386m-33.8 8.534L2.634 25.035C.78 32.998 2.293 41.003 6.283 47.511a40 40 0 0 1 7.746-1.44 39.8 39.8 0 0 1 .2-17.93m25.928 24.93a40 40 0 0 1 5.987 5.12c6.71-3.64 12.023-9.817 14.398-17.641l-11.593-3.106a39.8 39.8 0 0 1-8.792 15.627" fill="#46b948"></path><path d="m49.466 35.513 11.594 3.106a29.88 29.88 0 0 0-2.773-20.952 40 40 0 0 1-8.257 1.777 39.8 39.8 0 0 1-.564 16.069m-20.55 26.169a29.86 29.86 0 0 0 15.361-2.55 38 38 0 0 0-5.52-4.603 40.3 40.3 0 0 1-9.841 7.153M49.64 17.468a37.7 37.7 0 0 0 7.613-1.582 29.9 29.9 0 0 0-13.02-11.38 40.1 40.1 0 0 1 5.407 12.962m-9.484 35.603a40 40 0 0 1 5.987 5.12c6.71-3.64 12.023-9.817 14.398-17.641l-11.593-3.106a39.8 39.8 0 0 1-8.792 15.627" opacity=".2"></path></svg>